<?xml version="1.0" encoding="UTF-8"?>
<svg width="324px" height="324px" viewBox="0 0 324 324" version="1.1" xmlns="http://www.w3.org/2000/svg" xmlns:xlink="http://www.w3.org/1999/xlink">
    <!-- Generator: Sketch 60.1 (88133) - https://sketch.com -->
    <title>template/ornement_2 copy</title>
    <desc>Created with Sketch.</desc>
    <g id="template/ornement_2-copy" stroke="none" stroke-width="1" fill="none" fill-rule="evenodd">
        <path d="M160.5492,0.0005 L191.5492,9.7285 L191.5492,47.5765 L210.6062,14.5675 L242.3192,21.6415 L264.3012,45.5675 L246.2432,76.8435 L277.5192,58.7855 L301.4452,80.7685 L308.5192,112.4805 L275.7812,131.3815 L313.3572,131.3815 L323.0862,162.3825 L313.3572,193.3815 L278.7042,193.3815 L308.5192,210.5955 L301.4452,242.3075 L277.5192,264.2895 L246.2432,246.2315 L264.3012,277.5085 L242.3192,301.4335 L210.6062,308.5075 L191.5492,275.4995 L191.5492,314.3895 L160.5492,323.0865 L129.5482,314.3895 L129.5482,278.9635 L111.9702,309.4115 L80.7742,301.4425 L58.2772,278.4105 L76.8552,246.2315 L44.6762,264.8105 L21.6442,242.3125 L13.6752,211.1165 L44.3922,193.3815 L8.6972,193.3815 L0.000200000001,162.3825 L8.6972,131.3815 L47.3172,131.3815 L13.6752,111.9585 L21.6432,80.7635 L21.8442,80.5675 L44.6762,58.2655 L76.8552,76.8445 L58.2772,44.6645 L80.7742,21.6325 L111.9702,13.6655 L129.5482,44.1135 L129.5482,9.7285 L160.5492,0.0005 Z M161.5492,223.5375 L131.5482,275.4995 L131.5482,312.8735 L160.5492,321.0085 L189.5492,312.8735 L189.5492,272.0355 L161.5492,223.5375 Z M129.5482,215.8085 L80.3192,244.2315 L60.7662,278.0985 L81.8132,299.6435 L110.9952,307.0985 L129.5482,274.9635 L129.5482,215.8085 Z M191.5492,214.6545 L191.5492,271.4985 L211.6042,306.2365 L241.2692,299.6195 L261.8342,277.2365 L242.7782,244.2315 L191.5492,214.6545 Z M150.2022,203.8845 L131.5482,214.6545 L131.5482,271.4985 L160.3932,221.5375 L150.2022,203.8845 Z M172.8952,203.8845 L162.7042,221.5375 L189.5492,268.0345 L189.5492,213.4995 L172.8952,203.8845 Z M107.3682,193.3815 L48.3932,193.3815 L15.9882,212.0905 L23.4432,241.2735 L44.9882,262.3205 L78.8552,242.7675 L107.3682,193.3815 Z M274.7032,193.3815 L215.7302,193.3815 L244.2432,242.7675 L277.2472,261.8225 L299.6312,241.2585 L306.2482,211.5945 L274.7032,193.3815 Z M148.0058,212.0812 L153.4658,221.5382 L137.5488,249.1072 L137.5488,218.1192 L148.0058,212.0812 Z M175.0918,212.0806 L183.5488,216.9636 L183.5488,245.6436 L169.6318,221.5386 L175.0918,212.0806 Z M213.4192,193.3815 L191.5492,193.3815 L191.5492,212.3445 L240.7782,240.7665 L213.4192,193.3815 Z M129.5482,193.3815 L109.6772,193.3815 L82.3202,240.7665 L129.5482,213.4995 L129.5482,193.3815 Z M123.5489,199.3821 L123.5489,210.0351 L98.7109,224.3761 L113.1419,199.3821 L123.5489,199.3821 Z M209.9561,199.3819 L224.3871,224.3749 L197.5491,208.8799 L197.5491,199.3819 L209.9561,199.3819 Z M161.5492,103.5395 L150.9342,121.9235 L131.5482,110.7315 L131.5482,133.3825 L111.8072,133.3825 L121.9352,150.9235 L103.5492,161.5375 L121.9352,172.1525 L110.8322,191.3815 L131.5482,191.3815 L131.5482,212.3445 L150.9342,201.1525 L161.5492,219.5365 L172.1632,201.1525 L189.5492,211.1895 L189.5492,191.3815 L212.2652,191.3815 L201.1632,172.1525 L219.5482,161.5375 L201.1632,150.9245 L211.2912,133.3825 L189.5492,133.3825 L189.5492,111.8855 L172.1632,121.9225 L161.5492,103.5395 Z M311.8892,133.3825 L272.3172,133.3825 L223.5482,161.5375 L275.2402,191.3815 L311.8892,191.3815 L320.9912,162.3825 L311.8892,133.3825 Z M50.7812,133.3825 L10.2132,133.3825 L2.0782,162.3825 L10.2132,191.3815 L47.8562,191.3815 L99.5482,161.5375 L50.7812,133.3825 Z M221.5482,162.6935 L203.8962,172.8855 L214.5752,191.3815 L271.2392,191.3815 L221.5482,162.6935 Z M101.5492,162.6925 L51.8572,191.3815 L108.5232,191.3815 L119.2022,172.8855 L101.5492,162.6925 Z M101.549,169.6209 L111.006,175.0809 L105.058,185.3819 L74.249,185.3819 L101.549,169.6209 Z M221.5487,169.6209 L248.8477,185.3819 L218.0397,185.3819 L212.0917,175.0809 L221.5487,169.6209 Z M268.3172,133.3825 L213.6002,133.3825 L203.8962,150.1915 L221.5482,160.3835 L268.3172,133.3825 Z M109.4972,133.3825 L54.7822,133.3825 L101.5492,160.3825 L119.2022,150.1905 L109.4972,133.3825 Z M106.0329,139.3819 L111.0059,147.9949 L101.5489,153.4549 L77.1729,139.3819 L106.0329,139.3819 Z M245.9244,139.3819 L221.5484,153.4549 L212.0914,147.9949 L217.0654,139.3819 L245.9244,139.3819 Z M82.3202,82.3095 L110.6522,131.3815 L129.5482,131.3815 L129.5482,109.5775 L82.3202,82.3095 Z M240.7782,82.3085 L191.5492,110.7315 L191.5492,131.3815 L212.4462,131.3815 L240.7782,82.3085 Z M277.2472,61.2525 L244.2432,80.3085 L214.7552,131.3815 L271.7812,131.3815 L306.2482,111.4825 L299.6312,81.8175 L277.2472,61.2525 Z M44.9882,60.7555 L23.4422,81.8025 L15.9882,110.9845 L51.3182,131.3815 L108.3432,131.3815 L78.8562,80.3095 L44.9882,60.7555 Z M98.7112,98.6999 L123.5492,113.0409 L123.5492,125.3819 L114.1162,125.3819 L98.7112,98.6999 Z M224.3867,98.7003 L208.9817,125.3823 L197.5487,125.3823 L197.5487,114.1953 L224.3867,98.7003 Z M131.5482,51.5775 L131.5482,108.4215 L150.2022,119.1915 L160.3942,101.5385 L131.5482,51.5775 Z M189.5492,55.0405 L162.7042,101.5385 L172.8952,119.1905 L189.5492,109.5755 L189.5492,55.0405 Z M183.5488,77.4324 L183.5488,106.1114 L175.0908,110.9954 L169.6318,101.5384 L183.5488,77.4324 Z M137.5488,73.9688 L153.4658,101.5378 L148.0058,110.9948 L137.5488,104.9568 L137.5488,73.9688 Z M211.6042,16.8385 L191.5492,51.5765 L191.5492,108.4205 L242.7782,78.8445 L261.8342,45.8395 L241.2692,23.4565 L211.6042,16.8385 Z M110.9952,15.9775 L81.8132,23.4315 L60.7662,44.9785 L80.3202,78.8445 L129.5482,107.2665 L129.5482,48.1135 L110.9952,15.9775 Z M160.5492,2.0955 L131.5482,11.1975 L131.5482,47.5775 L161.5492,99.5375 L189.5492,51.0405 L189.5492,11.1975 L160.5492,2.0955 Z" id="ornements" fill="#FFFFFF"></path>
    </g>
</svg>